<svg width="20" height="20" viewBox="0 0 20 20" fill="none" xmlns="http://www.w3.org/2000/svg">
<path d="M2.06702 3.31515C0.872523 4.89872 0.402466 6.97084 0.156377 8.99242C-0.0510019 10.6897 -0.118745 12.4516 0.378963 14.0772C1.11446 16.4793 3.04861 18.3211 5.24821 19.2182C7.44642 20.1153 9.88104 20.1532 12.2051 19.7629C16.3333 19.0708 19.7633 15.1259 19.9873 10.6139C20.3177 3.98059 14.2235 -0.67044 8.44183 0.079228C6.05007 0.38808 3.58641 1.302 2.06702 3.31515Z" fill="#FFDA36"/>
<path d="M12.2037 19.7624C14.9369 19.3034 17.3646 17.418 18.7582 14.8868C16.9319 16.2289 14.7904 17.0642 12.5839 17.1751C9.07088 17.352 5.46941 15.6014 3.45507 12.5016C1.63291 9.69807 1.25548 5.84725 2.55367 2.74609C2.38362 2.92579 2.22048 3.11391 2.06841 3.31466C0.872523 4.89823 0.402465 6.97035 0.156377 8.99192C-0.0510019 10.6892 -0.118745 12.4511 0.378963 14.0767C1.11446 16.4788 3.04861 18.3207 5.24821 19.2177C7.44642 20.1148 9.88104 20.1527 12.2037 19.7624Z" fill="#FFC52B"/>
<path d="M13.8951 5.5663C13.125 3.82402 10.4414 3.12486 8.81825 3.38459C8.56386 3.4253 8.6634 3.79594 8.87356 3.82542C9.82892 3.95458 10.6737 4.13569 11.5461 4.59338C12.2595 4.96823 12.778 5.63229 13.4762 6.01837C13.7596 6.17561 14.0278 5.86534 13.8951 5.5663Z" fill="#FFE175"/>
<path d="M14.5527 6.4681C14.3467 6.44424 14.2527 6.7531 14.3896 6.8935C14.6702 7.1813 14.9868 7.39891 15.2385 7.72463C15.5067 8.0714 15.6533 8.49679 15.9229 8.84637C16.0957 9.0696 16.3916 8.86883 16.4081 8.63017C16.4745 7.64881 15.4265 6.572 14.5527 6.4681Z" fill="#FFE175"/>
<path d="M7.12773 8.60872C6.86919 8.16788 6.34657 7.84357 5.96912 7.50803C5.52255 7.11212 5.08704 6.70077 4.60866 6.34417C4.42893 6.20939 4.24781 6.49018 4.38192 6.64321C4.60037 6.8917 6.61203 8.64381 6.37699 8.86985C5.71888 9.49741 4.91006 10.1544 4.44966 10.9477C4.34459 11.1288 4.55336 11.3366 4.73033 11.2327C5.25156 10.928 5.63869 10.4647 6.06314 10.0365C6.41155 9.68413 6.87886 9.33315 7.12773 8.89933C7.17889 8.81088 7.17889 8.69716 7.12773 8.60872Z" fill="#A24818"/>
<path d="M10.4905 8.53645C10.749 8.09561 11.2716 7.77131 11.6491 7.43576C12.0957 7.03986 12.5312 6.6285 13.0096 6.2719C13.1893 6.13712 13.3704 6.41791 13.2363 6.57094C13.0179 6.81944 11.0062 8.57295 11.2412 8.79758C11.8993 9.42514 12.7082 10.0822 13.1686 10.8754C13.2736 11.0565 13.0649 11.2643 12.8879 11.1604C12.3667 10.8558 11.9795 10.3925 11.5551 9.96425C11.2067 9.61187 10.7394 9.26088 10.4905 8.82707C10.4407 8.73721 10.4393 8.6249 10.4905 8.53645Z" fill="#A24818"/>
<path d="M13.1416 13.4883C12.1282 14.1818 11.6955 14.3545 10.6779 13.4448C10.5617 13.3409 10.3433 13.3016 10.2327 13.4448C9.94096 13.8238 9.67135 14.2099 9.41143 14.6072C8.97868 14.0864 8.54593 13.5122 7.99151 13.1612C7.90165 13.1036 7.75094 13.0938 7.66108 13.1612C7.31681 13.4209 7.29607 13.4771 7.01817 13.8772C6.4527 14.6915 5.95082 13.9137 5.31206 13.4518C5.18487 13.3605 5.02034 13.4364 4.94291 13.5501C4.74106 13.8379 4.54473 14.1285 4.35532 14.4261C4.24333 14.5974 4.49219 14.7813 4.63045 14.6423C5.37843 13.8884 5.81394 14.5637 6.4997 15.1113C6.66976 15.2474 6.85779 15.2222 6.98776 15.0467C7.19791 14.7771 7.397 14.4991 7.58642 14.2141C7.9528 13.6835 9.08652 15.2334 9.21787 15.3794C9.36166 15.5395 9.6202 15.4861 9.72666 15.3134C9.97414 14.9063 10.2368 14.5202 10.512 14.1383C11.766 15.2137 12.2927 15.4089 13.4251 13.7747C13.5412 13.6034 13.3089 13.3746 13.1416 13.4883Z" fill="#A24818"/>
</svg>
