<svg width="20" height="20" viewBox="0 0 20 20" fill="none" xmlns="http://www.w3.org/2000/svg">
<path d="M2.06591 3.31571C0.871205 4.89955 0.401068 6.97201 0.154938 8.99393C-0.0524753 10.6915 -0.12023 12.4536 0.377561 14.0796C1.11319 16.482 3.04766 18.3242 5.24762 19.2215C7.4462 20.1187 9.88124 20.1566 12.2056 19.7662C16.3346 19.074 19.7652 15.1285 19.9892 10.6157C20.3197 3.98126 14.2245 -0.670553 8.44179 0.0792413C6.04962 0.388145 3.58555 1.30222 2.06591 3.31571Z" fill="#FFDA36"/>
<path d="M15.7278 3.22771C14.9576 1.48521 12.2737 0.785966 10.6503 1.04573C10.3959 1.08645 10.4954 1.45713 10.7056 1.48662C11.6611 1.61579 12.506 1.79692 13.3785 2.25466C14.092 2.62956 14.6105 3.2937 15.3088 3.67983C15.5923 3.83709 15.8605 3.52679 15.7278 3.22771Z" fill="#FFE175"/>
<path d="M16.3862 4.13021C16.1802 4.10634 16.0862 4.41525 16.2231 4.55566C16.5038 4.8435 16.8204 5.06114 17.0721 5.38689C17.3403 5.73371 17.4869 6.15915 17.7565 6.50877C17.9294 6.73203 18.2253 6.53124 18.2419 6.29254C18.3083 5.31107 17.2601 4.23412 16.3862 4.13021Z" fill="#FFE175"/>
<path d="M12.2043 19.7663C14.938 19.3071 17.3661 17.4214 18.7599 14.8898C16.9333 16.2321 14.7914 17.0676 12.5845 17.1785C9.07094 17.3554 5.46886 15.6045 3.45419 12.5042C1.63172 9.70021 1.25423 5.84875 2.55263 2.74707C2.38256 2.9268 2.21939 3.11495 2.06729 3.31573C0.871205 4.89957 0.401068 6.97203 0.154938 8.99395C-0.0524753 10.6915 -0.12023 12.4537 0.377561 14.0796C1.11319 16.4821 3.04766 18.3242 5.24762 19.2215C7.4462 20.1187 9.88123 20.1566 12.2043 19.7663Z" fill="#FFC52B"/>
<path d="M5.2157 7.25256C5.2157 7.25256 4.34456 6.02537 2.99085 6.9577C1.63713 7.89143 4.87692 10.7881 5.36089 10.8864C5.84485 10.9847 8.55229 8.18489 7.73093 6.9577C6.90957 5.73051 5.40929 6.76112 5.2157 7.25256Z" fill="#F27976"/>
<path d="M14.617 7.25256C14.617 7.25256 15.4882 6.02537 16.8419 6.9577C18.1956 7.89143 14.9558 10.7881 14.4719 10.8864C13.9879 10.9847 11.2805 8.18489 12.1018 6.9577C12.9246 5.73051 14.4235 6.76112 14.617 7.25256Z" fill="#F27976"/>
<path d="M11.6853 13.916C12.2674 13.3052 12.6836 12.4094 11.872 11.8393C11.1709 11.3465 9.25164 11.6301 9.271 12.7141C9.27515 12.9205 9.54202 12.9401 9.60978 12.7604C9.83378 12.1595 10.8045 12.1314 11.2967 12.2395C12.2882 12.4585 11.2649 13.558 10.8681 13.8247C10.5694 14.0269 10.7685 14.4383 11.1004 14.3864C11.565 14.3134 12.4513 15.0884 11.7586 15.5869C11.5277 15.7526 11.247 15.827 10.9759 15.8902C10.4519 16.0123 9.83655 15.8537 9.34429 15.6725C9.11337 15.5869 9.01381 15.9225 9.18804 16.0488C9.99557 16.6344 11.7821 16.7369 12.3615 15.688C12.7459 14.9944 12.3186 14.2221 11.6853 13.916Z" fill="#A24818"/>
</svg>
