<svg width="20" height="20" viewBox="0 0 20 20" fill="none" xmlns="http://www.w3.org/2000/svg">
<path d="M2.06702 3.31613C0.872523 4.8997 0.402466 6.97182 0.156377 8.99339C-0.0510019 10.6907 -0.118745 12.4525 0.378963 14.0782C1.11446 16.4802 3.04861 18.3221 5.24821 19.2192C7.44642 20.1163 9.88104 20.1542 12.2051 19.7639C16.3333 19.0718 19.7633 15.1269 19.9873 10.6149C20.3177 3.98157 14.2235 -0.669463 8.44183 0.0802046C6.05007 0.389057 3.58641 1.30298 2.06702 3.31613Z" fill="#FFDA36"/>
<path d="M15.7269 3.22831C14.9568 1.48611 12.2734 0.786978 10.6503 1.04669C10.3959 1.08741 10.4954 1.45803 10.7056 1.48751C11.6609 1.61667 12.5056 1.79777 13.378 2.25543C14.0914 2.63026 14.6098 3.29429 15.308 3.68036C15.5914 3.83759 15.8596 3.52734 15.7269 3.22831Z" fill="#FFE175"/>
<path d="M16.3847 4.13119C16.1787 4.10733 16.0847 4.41618 16.2216 4.55656C16.5022 4.84436 16.8188 5.06196 17.0705 5.38766C17.3387 5.73441 17.4852 6.15979 17.7548 6.50935C17.9276 6.73257 18.2235 6.53181 18.2401 6.29315C18.3064 5.31185 17.2585 4.23508 16.3847 4.13119Z" fill="#FFE175"/>
<path d="M12.2037 19.7634C14.9369 19.3043 17.3646 17.4189 18.7582 14.8878C16.9319 16.2299 14.7904 17.0652 12.5839 17.1761C9.07088 17.353 5.46941 15.6023 3.45507 12.5026C1.63291 9.69905 1.25548 5.84823 2.55367 2.74707C2.38362 2.92677 2.22048 3.11489 2.06841 3.31564C0.872523 4.89921 0.402465 6.97132 0.156377 8.9929C-0.0510019 10.6902 -0.118745 12.452 0.378963 14.0777C1.11446 16.4798 3.04861 18.3216 5.24821 19.2187C7.44642 20.1158 9.88104 20.1537 12.2037 19.7634Z" fill="#FFC52B"/>
<path d="M3.50806 11.8669C2.66058 12.7542 4.76478 16.4337 9.21373 16.4829C13.6627 16.532 15.1876 12.159 15.113 11.7209C14.9194 10.5908 6.60353 8.62681 3.50806 11.8669Z" fill="#F26F59"/>
<path d="M2.44432 8.67672C2.02265 8.19239 -0.457597 10.4442 0.703722 11.476C1.86366 12.5065 3.16876 9.51203 2.44432 8.67672Z" fill="#83D0D3"/>
<path d="M5.19074 5.435C4.09578 5.30304 2.91372 6.26469 2.9234 7.39902C2.92478 7.59697 3.22894 7.71349 3.31742 7.50712C3.64922 6.73359 4.05015 6.16783 4.95156 6.07798C6.10044 5.96426 6.45574 6.93574 6.91612 7.74157C7.05714 7.98865 7.39033 7.8623 7.41107 7.60539C7.51061 6.38964 6.23039 5.55995 5.19074 5.435Z" fill="#A24818"/>
<path d="M15.9104 8.67672C16.3306 8.19239 18.8109 10.4442 17.6509 11.476C16.4896 12.5065 15.1845 9.51203 15.9104 8.67672Z" fill="#83D0D3"/>
<path d="M13.1633 5.435C14.2583 5.30304 15.4403 6.26469 15.4306 7.39902C15.4292 7.59697 15.1251 7.71349 15.0366 7.50712C14.7048 6.73359 14.3039 6.16783 13.4025 6.07798C12.2536 5.96426 11.8983 6.93574 11.4379 7.74157C11.2969 7.98865 10.9637 7.8623 10.943 7.60539C10.8434 6.38964 12.1236 5.55995 13.1633 5.435Z" fill="#A24818"/>
<path d="M3.50761 11.867C3.16889 12.2208 3.30853 13.0196 3.87121 13.8549C4.29703 13.306 4.76985 12.8034 5.32978 12.3963C7.76025 10.6302 11.2691 11.1398 13.7327 12.8568C13.9844 13.0323 14.2263 13.219 14.4613 13.4155C14.9452 12.5928 15.1402 11.8825 15.1125 11.7196C14.919 10.5909 6.60308 8.6269 3.50761 11.867Z" fill="#EF5345"/>
</svg>
